<?xml version="1.0" encoding="UTF-8"?>
<!DOCTYPE svg PUBLIC "-//W3C//DTD SVG 1.1//EN" "http://www.w3.org/Graphics/SVG/1.1/DTD/svg11.dtd">
<svg xmlns="http://www.w3.org/2000/svg" version="1.1" width="512px" height="512px" style="shape-rendering:geometricPrecision; text-rendering:geometricPrecision; image-rendering:optimizeQuality; fill-rule:evenodd; clip-rule:evenodd" xmlns:xlink="http://www.w3.org/1999/xlink">
<g><path style="opacity:0.996" fill="#e3b76a" d="M 33.5,-0.5 C 181.5,-0.5 329.5,-0.5 477.5,-0.5C 494.728,4.39419 506.061,15.3942 511.5,32.5C 511.5,181.167 511.5,329.833 511.5,478.5C 507.009,494.991 496.675,505.991 480.5,511.5C 330.5,511.5 180.5,511.5 30.5,511.5C 14.3248,505.991 3.99144,494.991 -0.5,478.5C -0.5,329.833 -0.5,181.167 -0.5,32.5C 4.9128,15.4208 16.2461,4.4208 33.5,-0.5 Z"/></g>
<g><path style="opacity:1" fill="#181819" d="M 49.5,14.5 C 185.834,14.3333 322.167,14.5 458.5,15C 479.308,18.14 492.141,29.9733 497,50.5C 497.667,187.167 497.667,323.833 497,460.5C 492.951,480.216 481.118,492.383 461.5,497C 324.5,497.667 187.5,497.667 50.5,497C 31.5784,493.413 19.745,482.247 15,463.5C 14.3333,324.833 14.3333,186.167 15,47.5C 20.2581,29.8181 31.7581,18.8181 49.5,14.5 Z"/></g>
<g><path style="opacity:1" fill="#e3b86a" d="M 144.5,64.5 C 163.743,64.1739 182.91,64.5072 202,65.5C 258.091,164.026 314.924,262.026 372.5,359.5C 381.989,344.531 390.989,329.198 399.5,313.5C 351.833,230.833 304.167,148.167 256.5,65.5C 271.063,64.1774 285.563,64.1774 300,65.5C 340.247,135.664 380.747,205.664 421.5,275.5C 425.252,269.664 428.752,263.664 432,257.5C 432.667,256.167 432.667,254.833 432,253.5C 395.581,190.997 359.414,128.33 323.5,65.5C 337.822,64.3339 352.155,64.1672 366.5,65C 403.582,128.419 440.249,192.085 476.5,256C 440.093,319.481 403.426,382.814 366.5,446C 347.824,446.833 329.158,446.666 310.5,445.5C 253.919,347.336 197.086,249.336 140,151.5C 132.333,164.5 124.667,177.5 117,190.5C 115.086,193.298 114.086,196.298 114,199.5C 161.374,281.748 208.874,363.915 256.5,446C 241.822,446.833 227.155,446.666 212.5,445.5C 172,375.833 131.5,306.167 91,236.5C 87.1667,242.833 83.3333,249.167 79.5,255.5C 115.967,319.129 152.634,382.629 189.5,446C 174.822,446.833 160.155,446.666 145.5,445.5C 108.176,382.347 71.5089,318.847 35.5,255C 71.6923,191.452 108.026,127.952 144.5,64.5 Z"/></g>
</svg>
